<?xml version="1.0" encoding="UTF-8"?>
<svg width="130px" height="33px" viewBox="0 0 130 33" version="1.1" xmlns="http://www.w3.org/2000/svg" xmlns:xlink="http://www.w3.org/1999/xlink">
    <!-- Generator: Sketch 64 (93537) - https://sketch.com -->
    <title>Group 18 Copy 2</title>
    <desc>Created with Sketch.</desc>
    <defs>
        <polygon id="path-1" points="0.445668712 0.298822086 27.6260368 0.298822086 27.6260368 32.1680761 0.445668712 32.1680761"></polygon>
        <polygon id="path-3" points="0.519680982 0.298822086 27.7003681 0.298822086 27.7003681 32.1680761 0.519680982 32.1680761"></polygon>
    </defs>
    <g id="Page-1" stroke="none" stroke-width="1" fill="none" fill-rule="evenodd">
        <g id="home4" transform="translate(-66.000000, -38.000000)">
            <g id="Group-18-Copy-2" transform="translate(66.000000, 38.000000)">
                <path d="M4.50493865,7.52996564 L4.50493865,9.53668957 C5.31763804,8.72201472 6.19812883,8.10331534 7.14720859,7.69597791 C8.09469325,7.28945031 9.11076687,7.08294724 10.1890491,7.08294724 C12.5322393,7.08294724 14.5245092,7.98265276 16.167454,9.77639509 C17.8103988,11.576616 18.628681,13.8805423 18.628681,16.6954626 C18.628681,19.4067264 17.7816871,21.6766405 16.0829141,23.4987264 C14.3897239,25.3272908 12.379908,26.2391436 10.0542638,26.2391436 C9.02064417,26.2391436 8.0556135,26.0496466 7.16315951,25.6771313 C6.27150307,25.304616 5.38542945,24.6915853 4.50493865,23.8372294 L4.50493865,32.4641988 L0.000398773006,32.4641988 L0.000398773006,7.52996564 L4.50493865,7.52996564 Z M9.23518405,11.2786037 C7.81794479,11.2786037 6.63837423,11.7717816 5.70684049,12.7516589 C4.77052147,13.7380147 4.30156442,15.021573 4.30156442,16.6088123 C4.30156442,18.2316834 4.77052147,19.5435853 5.70684049,20.5412785 C6.63837423,21.5446405 7.81794479,22.0426773 9.23518405,22.0426773 C10.612546,22.0426773 11.7697853,21.5333031 12.7132822,20.5186037 C13.655184,19.4982356 14.1241411,18.2025301 14.1241411,16.6266282 C14.1241411,15.061254 13.6607669,13.7776957 12.7356135,12.7800025 C11.8152454,11.7774503 10.6468405,11.2786037 9.23518405,11.2786037 L9.23518405,11.2786037 Z" id="Fill-1" fill="#3C474E"></path>
                <path d="M21.1813865,0.479707975 L25.6859264,0.479707975 L25.6859264,9.39821104 C26.5664172,8.62483681 27.4477055,8.0458184 28.339362,7.66196564 C29.2254356,7.27811288 30.1290552,7.08294724 31.0374601,7.08294724 C32.8159877,7.08294724 34.3177669,7.70731534 35.5372147,8.96333988 C36.5812025,10.0460638 37.1004049,11.6397816 37.1004049,13.7380147 L37.1004049,25.7921252 L32.6636564,25.7921252 L32.6636564,17.7960025 C32.6636564,15.6864319 32.5679509,14.2530577 32.3701595,13.508027 C32.1723681,12.7573276 31.833411,12.2017939 31.3540859,11.8284687 C30.879546,11.4624319 30.2869693,11.2786037 29.5875215,11.2786037 C28.678319,11.2786037 27.8935337,11.5879534 27.2387485,12.2017939 C26.589546,12.8148245 26.138135,13.6513644 25.8837178,14.7122233 C25.7537178,15.2620883 25.6859264,16.5116344 25.6859264,18.4665301 L25.6859264,25.7921252 L21.1813865,25.7921252 L21.1813865,0.479707975 Z" id="Fill-4" fill="#3C474E"></path>
                <path d="M53.5742761,7.52996564 L58.078816,7.52996564 L58.078816,25.7921252 L53.5742761,25.7921252 L53.5742761,23.8485669 C52.6937853,24.697254 51.8069141,25.304616 50.9208405,25.6771313 C50.0347669,26.0496466 49.0697362,26.2391436 48.0361166,26.2391436 C45.7048896,26.2391436 43.6950736,25.3272908 41.9963006,23.4987264 C40.2967301,21.6766405 39.4505337,19.4067264 39.4505337,16.6954626 C39.4505337,13.8805423 40.2743988,11.576616 41.916546,9.77639509 C43.5594908,7.98265276 45.5525583,7.08294724 47.9005337,7.08294724 C48.9843988,7.08294724 49.9948896,7.28945031 50.9431718,7.69597791 C51.8922515,8.10331534 52.7671595,8.72201472 53.5742761,9.53668957 L53.5742761,7.52996564 Z M48.8264847,11.2786037 C47.4267914,11.2786037 46.2631718,11.7774503 45.3436012,12.7800025 C44.4176503,13.7776957 43.9542761,15.061254 43.9542761,16.6266282 C43.9542761,18.2025301 44.4232331,19.4982356 45.3659325,20.5186037 C46.3094294,21.5333031 47.4658712,22.0426773 48.8432331,22.0426773 C50.2604724,22.0426773 51.4400429,21.5446405 52.3715767,20.5412785 C53.3086933,19.5435853 53.7776503,18.2316834 53.7776503,16.6088123 C53.7776503,15.021573 53.3086933,13.7380147 52.3715767,12.7516589 C51.4400429,11.7717816 50.2548896,11.2786037 48.8264847,11.2786037 L48.8264847,11.2786037 Z" id="Fill-6" fill="#3C474E"></path>
                <path d="M72.4186135,10.1152221 L69.6295951,12.9641546 C68.5010675,11.8174552 67.4730307,11.2441055 66.5478773,11.2441055 C66.0454233,11.2441055 65.6498405,11.3526209 65.3619264,11.5712712 C65.0740123,11.7883018 64.9328466,12.0579706 64.9328466,12.3786577 C64.9328466,12.6256515 65.0237669,12.8491607 65.2040123,13.0556638 C65.3850552,13.2621669 65.8364663,13.5423632 66.5534601,13.9035411 L68.2019877,14.740081 C69.940638,15.606584 71.1369571,16.4941423 71.7861595,17.3946577 C72.435362,18.3000319 72.756773,19.3552221 72.756773,20.569946 C72.756773,22.1863387 72.1697791,23.5395411 70.9957914,24.6165963 C69.8218037,25.7001301 68.2466503,26.2394675 66.2711288,26.2394675 C63.6519877,26.2394675 61.5520491,25.2012834 59.9880613,23.1208663 L62.7706994,20.0484245 C63.301865,20.6736025 63.9223558,21.1829767 64.6401472,21.5676393 C65.3507607,21.951492 65.9832147,22.1458479 66.5367117,22.1458479 C67.1292883,22.1458479 67.6149939,22.0033202 67.9762822,21.7101669 C68.3431534,21.4186331 68.5233988,21.0857988 68.5233988,20.7076147 C68.5233988,20.002265 67.8686135,19.3147313 66.5534601,18.6498724 L65.0349325,17.8756883 C62.1214969,16.3912957 60.6651779,14.5343877 60.6651779,12.3049644 C60.6651779,10.8659215 61.213092,9.6333816 62.3081227,8.6130135 C63.4031534,7.5926454 64.8036442,7.08246135 66.508,7.08246135 C67.6764049,7.08246135 68.7714356,7.34646135 69.8050552,7.86798282 C70.8322945,8.38950429 71.7016196,9.14020368 72.4186135,10.1152221" id="Fill-8" fill="#3C474E"></path>
                <path d="M93.1030491,17.9504344 L78.6236012,17.9504344 C78.8317607,19.2518086 79.3908405,20.2891828 80.2944601,21.0633669 C81.1972822,21.8310724 82.3545215,22.2149252 83.7550123,22.2149252 C85.4370368,22.2149252 86.8766074,21.6132319 88.0848896,20.4098454 L91.8668528,22.2262626 C90.9241534,23.5908025 89.7892454,24.5990233 88.474092,25.2590233 C87.1533558,25.9125448 85.5893681,26.2389006 83.7773436,26.2389006 C80.9659939,26.2389006 78.6746442,25.3391951 76.9072822,23.5333055 C75.1407178,21.7330847 74.2538466,19.4753178 74.2538466,16.764054 C74.2538466,13.9839558 75.1407178,11.6743607 76.9072822,9.84012761 C78.6746442,8.00022577 80.8870368,7.08270429 83.5572209,7.08270429 C86.385319,7.08270429 88.6886319,8.00022577 90.4607791,9.82879018 C92.2337239,11.6622135 93.1197975,14.075465 93.1197975,17.0855509 L93.1030491,17.9504344 Z M88.6152577,14.3734773 C88.3161779,13.3765939 87.729184,12.5627288 86.8542761,11.9375509 C85.9737853,11.3131828 84.9569141,11.0030233 83.794092,11.0030233 C82.5355644,11.0030233 81.4349509,11.3528638 80.4802883,12.0582135 C79.8877117,12.4938945 79.3342147,13.2672687 78.8269755,14.3734773 L88.6152577,14.3734773 Z" id="Fill-10" fill="#3C474E"></path>
                <g id="Group-14" transform="translate(89.325153, 0.071156)">
                    <mask id="mask-2" fill="white">
                        <use xlink:href="#path-1"></use>
                    </mask>
                    <g id="Clip-13"></g>
                    <path d="M20.1466503,0.298579141 L27.6260368,0.298579141 L10.2108221,30.7006896 C9.74904294,31.5080761 8.72020859,32.1680761 7.92585276,32.1680761 L0.445668712,32.1680761 L17.8608834,1.76596564 C18.3234601,0.958579141 19.3514969,0.298579141 20.1466503,0.298579141" id="Fill-12" fill="#3FA1E3" mask="url(#mask-2)"></path>
                </g>
                <g id="Group-17" transform="translate(102.085890, 0.071156)">
                    <mask id="mask-4" fill="white">
                        <use xlink:href="#path-3"></use>
                    </mask>
                    <g id="Clip-16"></g>
                    <path d="M20.2206626,0.298579141 L27.7008466,0.298579141 L10.2856319,30.7006896 C9.82305521,31.5080761 8.7950184,32.1680761 7.99986503,32.1680761 L0.519680982,32.1680761 L17.9348957,1.76596564 C18.3974724,0.958579141 19.4255092,0.298579141 20.2206626,0.298579141" id="Fill-15" fill="#3FA1E3" mask="url(#mask-4)"></path>
                </g>
            </g>
        </g>
    </g>
</svg>