<?xml version="1.0" encoding="UTF-8" standalone="no"?>
<svg
   xmlns:dc="http://purl.org/dc/elements/1.1/"
   xmlns:cc="http://creativecommons.org/ns#"
   xmlns:rdf="http://www.w3.org/1999/02/22-rdf-syntax-ns#"
   xmlns:svg="http://www.w3.org/2000/svg"
   xmlns="http://www.w3.org/2000/svg"
   xmlns:sodipodi="http://sodipodi.sourceforge.net/DTD/sodipodi-0.dtd"
   xmlns:inkscape="http://www.inkscape.org/namespaces/inkscape"
   version="1.1"
   id="svg2"
   xml:space="preserve"
   width="1332.52"
   height="429.93332"
   viewBox="0 0 1332.52 429.93332"
   sodipodi:docname="Duo Logo Green.eps"><metadata
     id="metadata8"><rdf:RDF><cc:Work
         rdf:about=""><dc:format>image/svg+xml</dc:format><dc:type
           rdf:resource="http://purl.org/dc/dcmitype/StillImage" /></cc:Work></rdf:RDF></metadata><defs
     id="defs6" /><sodipodi:namedview
     pagecolor="#ffffff"
     bordercolor="#666666"
     borderopacity="1"
     objecttolerance="10"
     gridtolerance="10"
     guidetolerance="10"
     inkscape:pageopacity="0"
     inkscape:pageshadow="2"
     inkscape:window-width="640"
     inkscape:window-height="480"
     id="namedview4" /><g
     id="g10"
     inkscape:groupmode="layer"
     inkscape:label="ink_ext_XXXXXX"
     transform="matrix(1.3333333,0,0,-1.3333333,0,429.93333)"><g
       id="g12"
       transform="scale(0.1)"><path
         d="M 1612.25,-0.0117188 H -0.00390625 V 1531.63 H 3222.49 C 3180.48,678.66 2475.63,-0.0117188 1612.25,-0.0117188"
         style="fill:#7bcd54;fill-opacity:1;fill-rule:nonzero;stroke:none"
         id="path14" /><path
         d="M 1612.25,3224.49 H -0.00390625 V 1692.86 H 3222.49 c -42.01,852.96 -746.86,1531.63 -1610.24,1531.63"
         style="fill:#63c43f;fill-opacity:1;fill-rule:nonzero;stroke:none"
         id="path16" /><path
         d="m 8383.68,3224.49 c -863.38,0 -1568.23,-678.67 -1610.23,-1531.63 h 3220.48 c -42.01,852.96 -746.86,1531.63 -1610.25,1531.63"
         style="fill:#63c43f;fill-opacity:1;fill-rule:nonzero;stroke:none"
         id="path18" /><path
         d="M 8383.68,-0.0117188 C 7520.3,-0.0117188 6815.45,678.66 6773.45,1531.63 H 9993.93 C 9951.92,678.66 9247.07,-0.0117188 8383.68,-0.0117188"
         style="fill:#7bcd54;fill-opacity:1;fill-rule:nonzero;stroke:none"
         id="path20" /><path
         d="M 3385.72,3224.49 V 1612.24 C 3385.72,748.859 4064.39,44.0117 4917.36,2 V 3224.49 H 3385.72"
         style="fill:#63c43f;fill-opacity:1;fill-rule:nonzero;stroke:none"
         id="path22" /><path
         d="M 6610.22,-0.0117188 H 5078.58 V 3224.49 H 6610.22 V 1612.24 -0.0117188"
         style="fill:#7bcd54;fill-opacity:1;fill-rule:nonzero;stroke:none"
         id="path24" /></g></g></svg>
