<svg width="1844" height="662" viewBox="0 0 1844 662" fill="none" xmlns="http://www.w3.org/2000/svg">
<rect width="1844" height="662" fill="white"/>
<g clip-path="url(#clip0_478_11)">
<path d="M470.967 545.935H256V341.716H685.665C680.064 455.445 586.084 545.935 470.967 545.935Z" fill="#7BCD54"/>
<path d="M470.967 116.001H256V320.219H685.665C680.064 206.491 586.084 116.001 470.967 116.001" fill="#63C43F"/>
<path d="M1373.82 116.001C1258.71 116.001 1164.73 206.491 1159.13 320.219H1588.52C1582.92 206.491 1488.94 116.001 1373.82 116.001Z" fill="#63C43F"/>
<path d="M1373.82 545.935C1258.71 545.935 1164.73 455.445 1159.13 341.716H1588.52C1582.92 455.445 1488.94 545.935 1373.82 545.935Z" fill="#7BCD54"/>
<path d="M707.429 116.001V330.968C707.429 446.085 797.919 540.065 911.648 545.667V116.001H707.429Z" fill="#63C43F"/>
<path d="M1137.36 545.935H933.144V116.001H1137.36V330.968V545.935Z" fill="#7BCD54"/>
</g>
<defs>
<clipPath id="clip0_478_11">
<rect width="1332.52" height="429.933" fill="white" transform="translate(256 116)"/>
</clipPath>
</defs>
</svg>
