<?xml version="1.0" standalone="no"?>
<!DOCTYPE svg PUBLIC "-//W3C//DTD SVG 20010904//EN"
 "http://www.w3.org/TR/2001/REC-SVG-20010904/DTD/svg10.dtd">
<svg version="1.0" xmlns="http://www.w3.org/2000/svg"
 width="700.000000pt" height="700.000000pt" viewBox="0 0 700.000000 700.000000"
 preserveAspectRatio="xMidYMid meet">
<metadata>
Created by potrace 1.14, written by Peter Selinger 2001-2017
</metadata>
<g transform="translate(0.000000,700.000000) scale(0.100000,-0.100000)"
fill="#000000" stroke="none">
<path d="M4480 5310 c-69 -19 -146 -78 -187 -144 -25 -39 -115 -193 -161 -276
-21 -38 -170 -296 -430 -750 -30 -52 -68 -120 -85 -150 -17 -30 -50 -88 -74
-128 -24 -41 -43 -75 -43 -77 0 -2 -17 -32 -38 -66 -22 -35 -50 -84 -64 -109
-33 -60 -102 -180 -363 -635 -120 -209 -308 -537 -418 -730 -110 -192 -208
-364 -218 -380 l-18 -30 437 0 437 1 52 28 c28 16 69 45 90 66 24 25 140 216
318 527 153 268 426 745 606 1058 179 314 337 590 351 615 14 25 58 101 98
170 40 69 86 150 103 180 16 30 33 60 37 65 4 6 18 28 30 50 29 51 281 491
353 615 30 52 53 98 51 101 -5 9 -833 8 -864 -1z"/>
<path d="M5896 5313 c-2 -2 -12 -5 -24 -8 -31 -6 -103 -54 -139 -93 -18 -19
-92 -138 -165 -266 -72 -127 -190 -332 -261 -456 -72 -124 -138 -238 -147
-255 -59 -105 -346 -605 -361 -630 -11 -16 -22 -37 -26 -45 -4 -8 -46 -82 -93
-165 -48 -82 -98 -170 -112 -195 -14 -25 -121 -211 -238 -415 -117 -203 -225
-393 -241 -422 -16 -28 -89 -156 -163 -285 -74 -128 -133 -235 -131 -238 2 -3
196 -5 432 -5 l428 1 50 24 c68 34 132 101 181 190 23 41 90 158 148 259 58
101 106 185 106 187 0 1 27 48 60 104 33 56 60 104 60 106 0 3 16 30 35 60 19
30 35 56 35 57 0 2 32 59 72 128 39 68 76 133 82 144 27 49 138 241 147 255 5
8 86 150 180 315 94 165 260 455 369 645 109 190 207 361 217 380 57 100 244
427 253 440 16 26 100 180 100 184 0 5 -849 4 -854 -1z"/>
<path d="M1727 4594 c-1 -1 -27 -4 -57 -8 -173 -19 -319 -84 -462 -208 l-57
-49 -3 108 -3 108 -242 0 c-134 0 -243 -2 -244 -5 -3 -13 -4 -2706 -2 -2715 3
-8 196 -11 466 -6 l27 1 0 472 0 472 38 -36 c117 -111 269 -190 417 -216 22
-4 101 -6 175 -6 113 1 149 6 220 27 143 43 249 106 368 221 224 215 325 468
323 811 0 55 -3 118 -6 140 -42 281 -124 456 -294 626 -131 130 -257 202 -421
240 -61 14 -234 31 -243 23z m103 -485 c171 -53 294 -188 350 -384 14 -48 17
-91 15 -186 -2 -68 -5 -131 -7 -139 -3 -8 -8 -28 -13 -45 -17 -65 -78 -173
-128 -226 -104 -111 -200 -157 -347 -166 -212 -12 -378 73 -485 247 -61 101
-85 196 -85 345 -1 226 82 387 262 508 106 71 292 90 438 46z"/>
</g>
</svg>
