<svg width="1976" height="472" viewBox="0 0 1976 472" fill="none" xmlns="http://www.w3.org/2000/svg">
<rect width="1976" height="472" fill="white"/>
<path d="M496.014 428.314C539.858 420.595 583.697 412.848 627.531 405.073L628.766 404.81L561.116 324.462C523.911 280.272 493.469 243.944 493.469 243.738C493.469 243.342 563.321 51.2642 563.715 50.5795C563.845 50.3531 611.382 132.303 678.947 249.235C742.202 358.707 794.353 448.967 794.837 449.813L795.718 451.349L580.728 451.321L365.734 451.292L496.014 428.314V428.314ZM1320.48 408.882C1287.76 406.788 1268.73 388.181 1263.68 353.351C1262.34 344.087 1262.33 343.844 1262.2 283.698L1262.06 225.482H1291.03L1291.15 281.788C1291.25 332.54 1291.31 338.491 1291.8 342.059C1293.77 356.548 1297.7 366.293 1304.38 373.284C1309.73 378.881 1315.99 382.16 1324.66 383.898C1328.75 384.718 1340.39 384.718 1344.11 383.9C1352.9 381.971 1359.94 378.151 1366.16 371.949C1373.24 364.881 1378.48 354.85 1381.01 343.513L1381.87 339.687L1381.96 282.903L1382.06 226.119H1411.63V404.652H1382.36V390.49C1382.36 380.867 1382.26 376.36 1382.03 376.436C1381.85 376.496 1381.1 377.645 1380.36 378.989C1375.32 388.17 1366.92 396.571 1357.71 401.63C1346.67 407.693 1335.61 409.852 1320.48 408.885V408.882ZM1652.65 408.74C1641.1 407.872 1628.94 403.905 1619 397.762C1598.04 384.823 1585.64 363.489 1582.01 334.128C1580.76 323.97 1580.61 310.321 1581.65 301.688C1584 282.399 1591.59 263.462 1602.4 249.943C1605.17 246.48 1611.46 240.201 1614.92 237.437C1624.27 229.975 1635.21 224.76 1646.9 222.194C1653.68 220.715 1665.62 220.019 1672.83 220.686C1690.93 222.361 1707.52 230.869 1718.79 244.261C1730.24 257.871 1736.54 276.885 1737.35 300.296C1737.47 303.966 1737.5 310.397 1737.41 314.59L1737.25 322.216L1673.86 322.295L1610.47 322.374V325.201C1610.47 333.799 1612.56 343.592 1616.19 351.925C1619.31 359.112 1624.68 366.958 1629.08 370.755C1638.1 378.541 1649.13 383.202 1661.21 384.322C1665.69 384.738 1677.11 384.299 1682.21 383.516C1696.78 381.28 1710.62 375.579 1721.8 367.21C1722.72 366.511 1723.65 365.829 1724.6 365.164C1724.92 364.96 1725 367.532 1724.99 378.349L1724.98 391.786L1721.99 393.637C1709.34 401.446 1694.85 406.463 1679.51 408.338C1674.93 408.899 1658.13 409.151 1652.65 408.737V408.74ZM1707.83 295.406C1707.83 281.002 1701.74 265.001 1693.14 256.762C1687 250.882 1679.58 247.289 1670.76 245.925C1666.58 245.28 1657.79 245.529 1653.39 246.414C1644.09 248.293 1636.39 252.376 1629.68 258.997C1622.62 265.966 1617.32 274.432 1613.99 284.075C1612.79 287.543 1611.39 293.236 1610.96 296.405L1610.75 297.913H1707.82L1707.83 295.406ZM847.948 404.256C848.022 404.035 869.549 347.57 895.782 278.775L943.484 153.69H974.135L975.407 156.944C979.292 166.895 1070.9 404.38 1070.9 404.505C1070.9 404.584 1063.56 404.652 1054.6 404.649L1038.29 404.646L1025.09 369.547L1011.88 334.444H905.564L905.099 335.636C904.844 336.292 899.205 352.086 892.563 370.732L880.492 404.64L864.151 404.646C851.218 404.649 847.84 404.567 847.948 404.253V404.256ZM1002.18 307.658C1002.18 307.601 993.296 283.551 982.435 254.21C962.118 199.318 960.984 196.016 959.378 187.202C958.627 183.071 958.244 182.958 957.796 186.727C957.479 189.421 956.096 195.453 955.025 198.798C954.495 200.458 945.348 225.53 934.697 254.518C924.042 283.503 915.329 307.338 915.329 307.488C915.329 307.638 934.87 307.76 958.754 307.76C982.639 307.76 1002.18 307.715 1002.18 307.661L1002.18 307.658ZM1080.76 400.079V395.51L1133.73 322.807L1186.69 250.104L1138.74 249.943L1090.78 249.784L1090.7 237.635L1090.62 225.482H1229.33V233.69L1176.37 306.789C1147.23 346.996 1123.39 379.959 1123.39 380.041C1123.39 380.123 1146.94 380.191 1175.73 380.191H1228.06V404.652H1080.76V400.079ZM1469.43 404.439C1469.31 404.323 1469.22 364.009 1469.22 314.856V225.482H1498.17V243.908C1498.17 254.043 1498.29 262.333 1498.44 262.333C1498.59 262.333 1499.3 260.675 1500.01 258.646C1503.26 249.357 1508.9 240.676 1516.18 233.775C1522.73 227.562 1530.21 223.844 1539.05 222.421C1541.53 222.025 1543.63 221.945 1548.59 222.076C1554.83 222.237 1558.08 222.692 1561.88 223.929L1563.07 224.319V254.326L1559.65 252.617C1553.61 249.598 1547.65 248.401 1540.48 248.774C1535.82 249.015 1532.75 249.615 1529.03 251.01C1521.46 253.802 1515.04 259.038 1510.79 265.887C1504.49 275.914 1500 288.803 1498.68 300.649C1498.44 302.774 1498.3 320.088 1498.24 354.22L1498.16 404.652H1483.9C1476.06 404.652 1469.54 404.555 1469.43 404.439V404.439ZM238 403.811C238 403.698 269.876 348.447 308.835 281.03L379.67 158.452L462.22 89.2807C507.62 51.2359 544.891 20.0581 545.041 20.0016C545.188 19.945 544.593 21.4446 543.712 23.3346C542.834 25.2276 502.497 111.616 454.076 215.313L366.035 403.854L302.017 403.936C266.81 403.981 238 403.925 238 403.811Z" fill="#0089D6"/>
</svg>
