<svg xmlns="http://www.w3.org/2000/svg" viewBox="0 0 598 100" svg-inline="" role="presentation" focusable="false" tabindex="-1" class="NavPanel__logo"><path d="M209.377 82.862V42.204h-12.396v42.3c0 2.824-.913 4.74-3.739 4.74a15.7 15.7 0 01-2.918-.275l-.546 10.667a28.5 28.5 0 004.01.364c11.397 0 15.589-6.654 15.589-17.138zm36.83 2.461h12.125v-43.21h-12.489v24.066c0 5.47-3.282 9.208-8.568 9.208-4.558 0-6.564-3.009-6.564-7.476V42.113h-12.4v29.262c0 9.39 4.195 15.224 12.4 15.224 6.836 0 12.124-4.375 14.584-12.763h.912v11.487zm33.277-24.066c0-5.378 3.374-9.117 8.66-9.117 4.466 0 6.565 3.008 6.565 7.385v25.798h12.396V61.257c0-5.378 3.282-9.117 8.57-9.117 4.56 0 6.563 3.008 6.563 7.385v25.798h12.489V56.061c0-9.39-4.285-15.133-12.76-15.133-7.113 0-12.036 4.467-14.406 12.944h-1.002c-.548-8.113-4.284-12.944-11.943-12.944-6.836 0-12.032 4.375-14.494 12.762h-.913V42.113h-12.124v43.21h12.399V61.257zm105.753 2.552c0-14.859-5.381-22.881-14.862-22.881-6.928 0-11.668 4.558-13.946 12.124h-.82v-10.94H343.21V99.18h12.399V74.02h.728c2.188 7.566 6.838 12.58 14.038 12.58 9.299 0 14.862-7.931 14.862-22.791zm-20.878 11.85c-5.286 0-8.75-4.01-8.75-10.027v-3.373c0-6.198 3.372-10.119 8.842-10.119 5.924 0 8.569 3.739 8.569 11.669 0 7.931-2.645 11.85-8.66 11.85zm55.976-15.952l11.487-2.188c-1.55-10.484-7.019-16.591-19.874-16.591-13.764 0-22.15 8.66-22.15 23.337 0 14.768 8.568 22.334 22.243 22.334 12.306 0 18.415-6.29 19.873-16.318l-11.395-2.734c-.912 4.466-3.01 8.205-8.57 8.205-6.38 0-9.481-4.468-9.481-12.125 0-8.205 3.556-11.85 9.298-11.85 5.47 0 7.475 3.28 8.569 7.93zm31.09-32.91h-12.399v58.526h12.4V26.798zM480.597 86.6c13.765 0 22.151-8.66 22.151-22.881 0-14.404-8.66-22.79-22.151-22.79-13.765 0-22.335 8.386-22.335 22.79 0 14.22 8.296 22.881 22.335 22.881zm-.092-35.279c6.838 0 9.847 4.466 9.847 12.307 0 7.84-2.919 12.398-9.847 12.398-7.018 0-9.845-4.559-9.845-12.398 0-7.84 3.009-12.307 9.845-12.307zm56.613 34.003h12.125v-43.21h-12.488V66.18c0 5.47-3.283 9.208-8.569 9.208-4.558 0-6.564-3.009-6.564-7.476V42.113h-12.4v29.262c0 9.39 4.195 15.224 12.4 15.224 6.836 0 12.124-4.375 14.584-12.763h.912v11.487zm48.412 0h12.397V26.798H585.53v26.254h-.822c-2.278-7.566-6.929-12.124-13.855-12.124-9.483 0-14.95 8.113-14.95 23.155 0 14.586 5.467 22.516 14.766 22.516 7.202 0 11.943-5.013 14.13-12.58h.731v11.304zm-8.753-9.663c-6.108 0-8.75-3.829-8.75-11.577 0-8.114 2.734-11.943 8.66-11.943 5.469 0 8.843 4.011 8.843 10.302v3.373c0 6.016-3.556 9.845-8.753 9.845zM209.863 30.03a6.684 6.684 0 11-13.368 0 6.684 6.684 0 0113.368 0z" class="jc-wordmark"></path><path d="M169.327 78.331a23.873 23.873 0 01-16.88 6.993c-.1 0-.198-.007-.297-.008l-6.276.008c-.686-7.946-8.883-14.71-20.483-17.849a20.714 20.714 0 10-29.124 0 36.074 36.074 0 00-14.983 7.692 35.382 35.382 0 00-8.693-3.562 17.664 17.664 0 10-24.836 0c-9.153 2.475-15.826 7.6-17.237 13.719h-6.277c-.097-.007-.195 0-.295 0a23.874 23.874 0 118.876-46.034A23.872 23.872 0 0154.597 25.2c.584 0 1.16.028 1.732.069a31.093 31.093 0 0157.204-10.175 25.35 25.35 0 0132.7 23.306 23.875 23.875 0 0123.094 39.931z" class="jc-logo"></path></svg>