<svg width="379" height="116" viewBox="0 0 379 116" fill="none" xmlns="http://www.w3.org/2000/svg">
<rect width="379" height="116" fill="white"/>
<path d="M119.688 81.6719V91H85.4219V81.6719H119.688ZM88.7031 22.75V91H76.9375V22.75H88.7031ZM148.609 91H134.031L134.125 81.6719H148.609C152.828 81.6719 156.359 80.75 159.203 78.9062C162.078 77.0625 164.234 74.4219 165.672 70.9844C167.141 67.5469 167.875 63.4531 167.875 58.7031V55C167.875 51.3125 167.453 48.0469 166.609 45.2031C165.797 42.3594 164.578 39.9688 162.953 38.0312C161.359 36.0938 159.391 34.625 157.047 33.625C154.734 32.625 152.062 32.125 149.031 32.125H133.75V22.75H149.031C153.562 22.75 157.703 23.5156 161.453 25.0469C165.203 26.5469 168.438 28.7187 171.156 31.5625C173.906 34.4062 176.016 37.8125 177.484 41.7812C178.953 45.75 179.688 50.1875 179.688 55.0938V58.7031C179.688 63.6094 178.953 68.0469 177.484 72.0156C176.016 75.9844 173.906 79.3906 171.156 82.2344C168.406 85.0469 165.125 87.2188 161.312 88.75C157.531 90.25 153.297 91 148.609 91ZM140.547 22.75V91H128.781V22.75H140.547ZM217.047 31.8438L196.656 91H184.328L210.016 22.75H217.891L217.047 31.8438ZM234.109 91L213.672 31.8438L212.781 22.75H220.703L246.484 91H234.109ZM233.125 65.6875V75.0156H196V65.6875H233.125ZM280.047 65.5469H262.281V56.2188H280.047C283.141 56.2188 285.641 55.7188 287.547 54.7188C289.453 53.7188 290.844 52.3438 291.719 50.5938C292.625 48.8125 293.078 46.7812 293.078 44.5C293.078 42.3438 292.625 40.3281 291.719 38.4531C290.844 36.5469 289.453 35.0156 287.547 33.8594C285.641 32.7031 283.141 32.125 280.047 32.125H265.891V91H254.125V22.75H280.047C285.328 22.75 289.812 23.6875 293.5 25.5625C297.219 27.4062 300.047 29.9688 301.984 33.25C303.922 36.5 304.891 40.2188 304.891 44.4062C304.891 48.8125 303.922 52.5938 301.984 55.75C300.047 58.9062 297.219 61.3281 293.5 63.0156C289.812 64.7031 285.328 65.5469 280.047 65.5469Z" fill="#3F975D" fill-opacity="0.94"/>
</svg>
