<svg width="265" height="120" viewBox="0 0 265 120" fill="none" xmlns="http://www.w3.org/2000/svg">
  <g clip-path="url(#clip0_125_10)">
    <rect width="265" height="120" fill="white" />
    <g clip-path="url(#clip1_125_10)">
      <path
        d="M26.6569 91.4107C29.0711 92.9213 33.0844 94.6005 37.328 94.6005C41.192 94.6005 44.7822 93.4769 47.7564 91.5605C47.7564 91.5605 47.7626 91.5605 47.7689 91.5543L59 84.5131V109.938C57.2204 109.938 55.4284 109.451 53.8729 108.477L26.6569 91.4107Z"
        fill="#225086" />
      <path
        d="M51.8631 13.2272L5.19642 66.0362C1.59376 70.1186 2.53331 76.2858 7.2062 79.2134C7.2062 79.2134 24.4791 90.0436 26.6569 91.4107C29.0711 92.9213 33.0844 94.6005 37.328 94.6005C41.192 94.6005 44.7822 93.4769 47.7564 91.5605C47.7564 91.5605 47.7626 91.5605 47.7689 91.5543L59 84.5131L31.8462 67.4844L59.0062 36.7478V10.0624C56.368 10.0624 53.7298 11.1173 51.8631 13.2272Z"
        fill="#66DDFF" />
      <path d="M31.8462 67.4844L32.1697 67.6841L59 84.5131H59.0062V36.754L59 36.7478L31.8462 67.4844Z" fill="#CBF8FF" />
      <path
        d="M110.794 79.2135C115.467 76.2859 116.406 70.1187 112.804 66.0363L82.184 31.3858C79.7138 30.231 76.9449 29.5693 74.0142 29.5693C68.2587 29.5693 63.1129 32.06 59.6907 35.9738L59.0124 36.7416L86.1662 67.4782L59.0062 84.5069V109.931C60.792 109.931 62.5716 109.444 64.1271 108.471L110.794 79.2073V79.2135Z"
        fill="#074793" />
      <path
        d="M59.0062 10.0624V36.7478L59.6844 35.98C63.1067 32.0661 68.2524 29.5755 74.008 29.5755C76.9449 29.5755 79.7076 30.2434 82.1778 31.392L66.1307 13.2334C64.2702 11.1236 61.632 10.0686 59 10.0686L59.0062 10.0624Z"
        fill="#0294E4" />
      <path d="M86.16 67.4844L59.0062 36.754V84.5068L86.16 67.4844Z" fill="#96BCC2" />
    </g>
    <path
      d="M132.172 50L124.5 29.7812H124.375C124.417 30.2083 124.453 30.7292 124.484 31.3438C124.516 31.9583 124.542 32.6302 124.562 33.3594C124.583 34.0781 124.594 34.8125 124.594 35.5625V50H122.125V27.1562H126.062L133.297 46.1562H133.406L140.75 27.1562H144.656V50H142.031V35.375C142.031 34.6979 142.042 34.0208 142.062 33.3438C142.083 32.6562 142.109 32.0104 142.141 31.4062C142.172 30.7917 142.203 30.2604 142.234 29.8125H142.109L134.344 50H132.172ZM153.109 32.875V50H150.516V32.875H153.109ZM151.844 26.4688C152.271 26.4688 152.635 26.6094 152.938 26.8906C153.25 27.1615 153.406 27.5885 153.406 28.1719C153.406 28.7448 153.25 29.1719 152.938 29.4531C152.635 29.7344 152.271 29.875 151.844 29.875C151.396 29.875 151.021 29.7344 150.719 29.4531C150.427 29.1719 150.281 28.7448 150.281 28.1719C150.281 27.5885 150.427 27.1615 150.719 26.8906C151.021 26.6094 151.396 26.4688 151.844 26.4688ZM165.469 50.3125C163.927 50.3125 162.568 49.9948 161.391 49.3594C160.214 48.724 159.297 47.7552 158.641 46.4531C157.984 45.151 157.656 43.5104 157.656 41.5312C157.656 39.4583 158 37.7656 158.688 36.4531C159.385 35.1302 160.344 34.151 161.562 33.5156C162.781 32.8802 164.167 32.5625 165.719 32.5625C166.573 32.5625 167.396 32.651 168.188 32.8281C168.99 32.9948 169.646 33.2083 170.156 33.4688L169.375 35.6406C168.854 35.4323 168.25 35.2448 167.562 35.0781C166.885 34.9115 166.25 34.8281 165.656 34.8281C164.469 34.8281 163.479 35.0833 162.688 35.5938C161.906 36.1042 161.318 36.8542 160.922 37.8438C160.536 38.8333 160.344 40.0521 160.344 41.5C160.344 42.8854 160.531 44.0677 160.906 45.0469C161.292 46.026 161.859 46.776 162.609 47.2969C163.37 47.8073 164.318 48.0625 165.453 48.0625C166.359 48.0625 167.177 47.9688 167.906 47.7812C168.635 47.5833 169.297 47.3542 169.891 47.0938V49.4062C169.318 49.6979 168.677 49.9219 167.969 50.0781C167.271 50.2344 166.438 50.3125 165.469 50.3125ZM181.734 32.5625C182.078 32.5625 182.438 32.5833 182.812 32.625C183.188 32.6562 183.521 32.7031 183.812 32.7656L183.484 35.1719C183.203 35.099 182.891 35.0417 182.547 35C182.203 34.9583 181.88 34.9375 181.578 34.9375C180.891 34.9375 180.24 35.0781 179.625 35.3594C179.021 35.6302 178.49 36.026 178.031 36.5469C177.573 37.0573 177.214 37.6771 176.953 38.4062C176.693 39.125 176.562 39.9271 176.562 40.8125V50H173.953V32.875H176.109L176.391 36.0312H176.5C176.854 35.3958 177.281 34.8177 177.781 34.2969C178.281 33.7656 178.859 33.3438 179.516 33.0312C180.182 32.7188 180.922 32.5625 181.734 32.5625ZM201.812 41.4062C201.812 42.8125 201.63 44.0677 201.266 45.1719C200.901 46.276 200.375 47.2083 199.688 47.9688C199 48.7292 198.167 49.3125 197.188 49.7188C196.219 50.1146 195.12 50.3125 193.891 50.3125C192.745 50.3125 191.693 50.1146 190.734 49.7188C189.786 49.3125 188.964 48.7292 188.266 47.9688C187.578 47.2083 187.042 46.276 186.656 45.1719C186.281 44.0677 186.094 42.8125 186.094 41.4062C186.094 39.5312 186.411 37.9375 187.047 36.625C187.682 35.3021 188.589 34.2969 189.766 33.6094C190.953 32.9115 192.365 32.5625 194 32.5625C195.562 32.5625 196.927 32.9115 198.094 33.6094C199.271 34.3073 200.182 35.3177 200.828 36.6406C201.484 37.9531 201.812 39.5417 201.812 41.4062ZM188.781 41.4062C188.781 42.7812 188.964 43.974 189.328 44.9844C189.693 45.9948 190.255 46.776 191.016 47.3281C191.776 47.8802 192.755 48.1562 193.953 48.1562C195.141 48.1562 196.115 47.8802 196.875 47.3281C197.646 46.776 198.214 45.9948 198.578 44.9844C198.943 43.974 199.125 42.7812 199.125 41.4062C199.125 40.0417 198.943 38.8646 198.578 37.875C198.214 36.875 197.651 36.1042 196.891 35.5625C196.13 35.0208 195.146 34.75 193.938 34.75C192.156 34.75 190.849 35.3385 190.016 36.5156C189.193 37.6927 188.781 39.3229 188.781 41.4062ZM217.375 45.3125C217.375 46.4062 217.099 47.3281 216.547 48.0781C216.005 48.8177 215.224 49.375 214.203 49.75C213.193 50.125 211.984 50.3125 210.578 50.3125C209.38 50.3125 208.344 50.2188 207.469 50.0312C206.594 49.8438 205.828 49.5781 205.172 49.2344V46.8438C205.87 47.1875 206.703 47.5 207.672 47.7812C208.641 48.0625 209.63 48.2031 210.641 48.2031C212.12 48.2031 213.193 47.9635 213.859 47.4844C214.526 47.0052 214.859 46.3542 214.859 45.5312C214.859 45.0625 214.724 44.651 214.453 44.2969C214.193 43.9323 213.75 43.5833 213.125 43.25C212.5 42.9062 211.635 42.5312 210.531 42.125C209.438 41.7083 208.49 41.2969 207.688 40.8906C206.896 40.474 206.281 39.9688 205.844 39.375C205.417 38.7812 205.203 38.0104 205.203 37.0625C205.203 35.6146 205.786 34.5052 206.953 33.7344C208.13 32.9531 209.672 32.5625 211.578 32.5625C212.609 32.5625 213.573 32.6667 214.469 32.875C215.375 33.0729 216.219 33.3438 217 33.6875L216.125 35.7656C215.417 35.4635 214.661 35.2083 213.859 35C213.057 34.7917 212.24 34.6875 211.406 34.6875C210.208 34.6875 209.286 34.8854 208.641 35.2812C208.005 35.6771 207.688 36.2188 207.688 36.9062C207.688 37.4375 207.833 37.875 208.125 38.2188C208.427 38.5625 208.906 38.8854 209.562 39.1875C210.219 39.4896 211.083 39.8438 212.156 40.25C213.229 40.6458 214.156 41.0573 214.938 41.4844C215.719 41.901 216.318 42.4115 216.734 43.0156C217.161 43.6094 217.375 44.375 217.375 45.3125ZM236.312 41.4062C236.312 42.8125 236.13 44.0677 235.766 45.1719C235.401 46.276 234.875 47.2083 234.188 47.9688C233.5 48.7292 232.667 49.3125 231.688 49.7188C230.719 50.1146 229.62 50.3125 228.391 50.3125C227.245 50.3125 226.193 50.1146 225.234 49.7188C224.286 49.3125 223.464 48.7292 222.766 47.9688C222.078 47.2083 221.542 46.276 221.156 45.1719C220.781 44.0677 220.594 42.8125 220.594 41.4062C220.594 39.5312 220.911 37.9375 221.547 36.625C222.182 35.3021 223.089 34.2969 224.266 33.6094C225.453 32.9115 226.865 32.5625 228.5 32.5625C230.062 32.5625 231.427 32.9115 232.594 33.6094C233.771 34.3073 234.682 35.3177 235.328 36.6406C235.984 37.9531 236.312 39.5417 236.312 41.4062ZM223.281 41.4062C223.281 42.7812 223.464 43.974 223.828 44.9844C224.193 45.9948 224.755 46.776 225.516 47.3281C226.276 47.8802 227.255 48.1562 228.453 48.1562C229.641 48.1562 230.615 47.8802 231.375 47.3281C232.146 46.776 232.714 45.9948 233.078 44.9844C233.443 43.974 233.625 42.7812 233.625 41.4062C233.625 40.0417 233.443 38.8646 233.078 37.875C232.714 36.875 232.151 36.1042 231.391 35.5625C230.63 35.0208 229.646 34.75 228.438 34.75C226.656 34.75 225.349 35.3385 224.516 36.5156C223.693 37.6927 223.281 39.3229 223.281 41.4062ZM248.422 34.9062H244.156V50H241.562V34.9062H238.531V33.6562L241.562 32.7969V31.6562C241.562 30.2188 241.776 29.0521 242.203 28.1562C242.63 27.25 243.25 26.5833 244.062 26.1562C244.875 25.7292 245.865 25.5156 247.031 25.5156C247.688 25.5156 248.286 25.5729 248.828 25.6875C249.38 25.8021 249.865 25.9323 250.281 26.0781L249.609 28.125C249.255 28.0104 248.854 27.9062 248.406 27.8125C247.969 27.7083 247.521 27.6562 247.062 27.6562C246.073 27.6562 245.339 27.9792 244.859 28.625C244.391 29.2604 244.156 30.2604 244.156 31.625V32.875H248.422V34.9062ZM257.109 48.1875C257.536 48.1875 257.974 48.151 258.422 48.0781C258.87 48.0052 259.234 47.9167 259.516 47.8125V49.8281C259.214 49.9635 258.792 50.0781 258.25 50.1719C257.719 50.2656 257.198 50.3125 256.688 50.3125C255.781 50.3125 254.958 50.1562 254.219 49.8438C253.479 49.5208 252.885 48.9792 252.438 48.2188C252 47.4583 251.781 46.4062 251.781 45.0625V34.9062H249.344V33.6406L251.797 32.625L252.828 28.9062H254.391V32.875H259.406V34.9062H254.391V44.9844C254.391 46.0573 254.635 46.8594 255.125 47.3906C255.625 47.9219 256.286 48.1875 257.109 48.1875ZM134.844 94H122.125V71.1562H134.844V73.5H124.781V80.8906H134.266V83.2031H124.781V91.6562H134.844V94ZM147.625 76.5625C149.656 76.5625 151.193 77.0625 152.234 78.0625C153.276 79.0521 153.797 80.6458 153.797 82.8438V94H151.234V83.0156C151.234 81.5885 150.906 80.5208 150.25 79.8125C149.604 79.1042 148.609 78.75 147.266 78.75C145.37 78.75 144.036 79.2865 143.266 80.3594C142.495 81.4323 142.109 82.9896 142.109 85.0312V94H139.516V76.875H141.609L142 79.3438H142.141C142.505 78.7396 142.969 78.2344 143.531 77.8281C144.094 77.4115 144.724 77.099 145.422 76.8906C146.12 76.6719 146.854 76.5625 147.625 76.5625ZM164.672 92.1875C165.099 92.1875 165.536 92.151 165.984 92.0781C166.432 92.0052 166.797 91.9167 167.078 91.8125V93.8281C166.776 93.9635 166.354 94.0781 165.812 94.1719C165.281 94.2656 164.76 94.3125 164.25 94.3125C163.344 94.3125 162.521 94.1562 161.781 93.8438C161.042 93.5208 160.448 92.9792 160 92.2188C159.562 91.4583 159.344 90.4062 159.344 89.0625V78.9062H156.906V77.6406L159.359 76.625L160.391 72.9062H161.953V76.875H166.969V78.9062H161.953V88.9844C161.953 90.0573 162.198 90.8594 162.688 91.3906C163.188 91.9219 163.849 92.1875 164.672 92.1875ZM178.328 76.5625C178.672 76.5625 179.031 76.5833 179.406 76.625C179.781 76.6562 180.115 76.7031 180.406 76.7656L180.078 79.1719C179.797 79.099 179.484 79.0417 179.141 79C178.797 78.9583 178.474 78.9375 178.172 78.9375C177.484 78.9375 176.833 79.0781 176.219 79.3594C175.615 79.6302 175.083 80.026 174.625 80.5469C174.167 81.0573 173.807 81.6771 173.547 82.4062C173.286 83.125 173.156 83.9271 173.156 84.8125V94H170.547V76.875H172.703L172.984 80.0312H173.094C173.448 79.3958 173.875 78.8177 174.375 78.2969C174.875 77.7656 175.453 77.3438 176.109 77.0312C176.776 76.7188 177.516 76.5625 178.328 76.5625ZM190.047 76.5938C192.089 76.5938 193.604 77.0521 194.594 77.9688C195.583 78.8854 196.078 80.349 196.078 82.3594V94H194.188L193.688 91.4688H193.562C193.083 92.0938 192.583 92.6198 192.062 93.0469C191.542 93.4635 190.938 93.7812 190.25 94C189.573 94.2083 188.74 94.3125 187.75 94.3125C186.708 94.3125 185.781 94.1302 184.969 93.7656C184.167 93.401 183.531 92.849 183.062 92.1094C182.604 91.3698 182.375 90.4323 182.375 89.2969C182.375 87.5885 183.052 86.276 184.406 85.3594C185.76 84.4427 187.823 83.9427 190.594 83.8594L193.547 83.7344V82.6875C193.547 81.2083 193.229 80.1719 192.594 79.5781C191.958 78.9844 191.062 78.6875 189.906 78.6875C189.01 78.6875 188.156 78.8177 187.344 79.0781C186.531 79.3385 185.76 79.6458 185.031 80L184.234 78.0312C185.005 77.6354 185.891 77.2969 186.891 77.0156C187.891 76.7344 188.943 76.5938 190.047 76.5938ZM193.516 85.5625L190.906 85.6719C188.771 85.7552 187.266 86.1042 186.391 86.7188C185.516 87.3333 185.078 88.2031 185.078 89.3281C185.078 90.3073 185.375 91.0312 185.969 91.5C186.562 91.9688 187.349 92.2031 188.328 92.2031C189.849 92.2031 191.094 91.7812 192.062 90.9375C193.031 90.0938 193.516 88.8281 193.516 87.1406V85.5625ZM210.125 94V71.1562H212.781V94H210.125ZM237.203 82.3594C237.203 84.9323 236.734 87.0833 235.797 88.8125C234.859 90.5312 233.5 91.8281 231.719 92.7031C229.948 93.5677 227.797 94 225.266 94H219.062V71.1562H225.953C228.276 71.1562 230.276 71.5833 231.953 72.4375C233.63 73.2812 234.922 74.5365 235.828 76.2031C236.745 77.8594 237.203 79.9115 237.203 82.3594ZM234.406 82.4531C234.406 80.401 234.062 78.7083 233.375 77.375C232.698 76.0417 231.698 75.0521 230.375 74.4062C229.062 73.75 227.453 73.4219 225.547 73.4219H221.719V91.7188H224.953C228.099 91.7188 230.458 90.9427 232.031 89.3906C233.615 87.8385 234.406 85.526 234.406 82.4531Z"
      fill="#074793" />
  </g>
  <defs>
    <clipPath id="clip0_125_10">
      <rect width="265" height="120" fill="white" />
    </clipPath>
    <clipPath id="clip1_125_10">
      <rect width="112" height="100" fill="white" transform="translate(3 10)" />
    </clipPath>
  </defs>
</svg>