<svg width="379" height="116" viewBox="0 0 379 116" fill="none" xmlns="http://www.w3.org/2000/svg">
<rect width="379" height="116" fill="white"/>
<path d="M102.844 73.4219C102.844 72.0156 102.625 70.7656 102.188 69.6719C101.781 68.5781 101.047 67.5781 99.9844 66.6719C98.9219 65.7656 97.4219 64.8906 95.4844 64.0469C93.5781 63.1719 91.1406 62.2812 88.1719 61.375C84.9219 60.375 81.9219 59.2656 79.1719 58.0469C76.4531 56.7969 74.0781 55.3594 72.0469 53.7344C70.0156 52.0781 68.4375 50.1875 67.3125 48.0625C66.1875 45.9062 65.625 43.4219 65.625 40.6094C65.625 37.8281 66.2031 35.2969 67.3594 33.0156C68.5469 30.7344 70.2188 28.7656 72.375 27.1094C74.5625 25.4219 77.1406 24.125 80.1094 23.2188C83.0781 22.2812 86.3594 21.8125 89.9531 21.8125C95.0156 21.8125 99.375 22.75 103.031 24.625C106.719 26.5 109.547 29.0156 111.516 32.1719C113.516 35.3281 114.516 38.8125 114.516 42.625H102.844C102.844 40.375 102.359 38.3906 101.391 36.6719C100.453 34.9219 99.0156 33.5469 97.0781 32.5469C95.1719 31.5469 92.75 31.0469 89.8125 31.0469C87.0312 31.0469 84.7188 31.4688 82.875 32.3125C81.0312 33.1562 79.6562 34.2969 78.75 35.7344C77.8438 37.1719 77.3906 38.7969 77.3906 40.6094C77.3906 41.8906 77.6875 43.0625 78.2812 44.125C78.875 45.1562 79.7812 46.125 81 47.0312C82.2188 47.9062 83.75 48.7344 85.5938 49.5156C87.4375 50.2969 89.6094 51.0469 92.1094 51.7656C95.8906 52.8906 99.1875 54.1406 102 55.5156C104.812 56.8594 107.156 58.3906 109.031 60.1094C110.906 61.8281 112.312 63.7812 113.25 65.9688C114.188 68.125 114.656 70.5781 114.656 73.3281C114.656 76.2031 114.078 78.7969 112.922 81.1094C111.766 83.3906 110.109 85.3438 107.953 86.9688C105.828 88.5625 103.266 89.7969 100.266 90.6719C97.2969 91.5156 93.9844 91.9375 90.3281 91.9375C87.0469 91.9375 83.8125 91.5 80.625 90.625C77.4688 89.75 74.5938 88.4219 72 86.6406C69.4062 84.8281 67.3438 82.5781 65.8125 79.8906C64.2812 77.1719 63.5156 74 63.5156 70.375H75.2812C75.2812 72.5938 75.6562 74.4844 76.4062 76.0469C77.1875 77.6094 78.2656 78.8906 79.6406 79.8906C81.0156 80.8594 82.6094 81.5781 84.4219 82.0469C86.2656 82.5156 88.2344 82.75 90.3281 82.75C93.0781 82.75 95.375 82.3594 97.2188 81.5781C99.0938 80.7969 100.5 79.7031 101.438 78.2969C102.375 76.8906 102.844 75.2656 102.844 73.4219ZM151.641 31.8438L131.25 91H118.922L144.609 22.75H152.484L151.641 31.8438ZM168.703 91L148.266 31.8438L147.375 22.75H155.297L181.078 91H168.703ZM167.719 65.6875V75.0156H130.594V65.6875H167.719ZM193.5 22.75H204L223.734 75.3906L243.422 22.75H253.922L227.859 91H219.516L193.5 22.75ZM188.719 22.75H198.703L200.438 68.3125V91H188.719V22.75ZM248.719 22.75H258.75V91H246.984V68.3125L248.719 22.75ZM315.469 81.6719V91H281.203V81.6719H315.469ZM284.484 22.75V91H272.719V22.75H284.484Z" fill="#B40909" fill-opacity="0.94"/>
</svg>
