<svg width="189" height="37" viewBox="0 0 189 37" fill="none" xmlns="http://www.w3.org/2000/svg">
<rect width="189" height="37" fill="white"/>
<path d="M84.0999 28.2L77.9999 11.1C77.8999 10.9 77.7999 10.6 77.7999 10.3C77.7999 9.59995 78.3999 8.79995 79.3999 8.79995C80.0999 8.79995 80.6999 9.29995 80.9999 10.1L85.9999 24.7999L91.0999 9.99995C91.2999 9.29995 91.7999 8.69995 92.5999 8.69995H92.7999C93.5999 8.69995 94.1999 9.19995 94.3999 9.99995L99.3999 24.7999L104.5 9.99995C104.7 9.39995 105.1 8.79995 106 8.79995C106.9 8.79995 107.5 9.39995 107.5 10.2C107.5 10.5 107.4 10.8 107.3 11L101.1 28.1C100.8 29 100.2 29.5 99.3999 29.5H99.2999C98.5999 29.5 97.8999 29.1 97.5999 28.1L92.5999 13.6L87.5999 28.1C87.2999 29 86.7999 29.5 85.8999 29.5H85.7999C84.9999 29.6 84.3999 29 84.0999 28.2Z" fill="#717074"/>
<path d="M128.7 10.4C128.7 9.60005 129.3 8.80005 130.2 8.80005C131 8.80005 131.8 9.40005 131.8 10.4V13.9C133.3 10.5 136.6 9.00005 138.7 9.00005C139.6 9.00005 140.2 9.60005 140.2 10.6C140.2 11.4 139.7 12 138.8 12.2C134.9 12.6 131.7 15.6 131.7 21.4V28.2001C131.7 29.0001 131.1 29.8 130.2 29.8C129.4 29.8 128.6 29.2001 128.6 28.2001V10.4" fill="#717074"/>
<path d="M149.9 29.7001C144.5 29.7001 140.1 25.5 140.1 19.3V19.2C140.1 13.4 144.1 8.80005 149.6 8.80005C155.5 8.80005 158.8 13.6 158.8 19C158.8 19.8 158.2 20.4 157.4 20.4H143C143.4 24.7 146.5 27.2001 150 27.2001C152.4 27.2001 154.3 26.3 155.7 24.9C155.9 24.7 156.2 24.6 156.5 24.6C157.2 24.6 157.8 25.2 157.8 25.9C157.8 26.2 157.7 26.6 157.4 26.8C155.5 28.5 153.3 29.7001 149.9 29.7001ZM155.8 18.1C155.5 14.4 153.4 11.3 149.5 11.3C146 11.3 143.4 14.2 143.1 18.1H155.8Z" fill="#717074"/>
<path d="M107.4 23.5C107.4 19.2 110.9 16.9 116 16.9C118.6 16.9 120.4 17.2 122.2 17.7V17C122.2 13.3 120 11.6 116.2 11.6C114.2 11.6 113 11.8 111.5 12.5C111.3 12.6 111.1 12.6 111 12.6C110.3 12.6 109.6 12 109.6 11.3C109.6 10.6 109.9 10.3 110.4 10C112.4 9.20005 113.9 8.80005 116.5 8.80005C119.3 8.80005 121.5 9.50005 123 11C124.4 12.4 125.1 14.4 125.1 16.9V28C125.1 28.8 124.5 29.5 123.6 29.5C122.8 29.5 122.1 28.9 122.1 28.1V26.1C120.7 28 118.3 29.6 114.8 29.6C111.2 29.7 107.4 27.6 107.4 23.5ZM122.2 21.9V19.9C120.7 19.5 118.7 19.1 116.2 19.1C112.4 19.1 110.3 20.8 110.3 23.3V23.4C110.3 25.9 112.6 27.4 115.3 27.4C119.2 27.4 122.2 25.1 122.2 21.9Z" fill="#717074"/>
<path d="M29.4999 10.1C28.8999 8.60004 27.1999 8.00004 25.6999 8.60004C24.1999 9.20004 23.5999 11 24.3999 12.4L30.7999 26.3C31.7999 28.5 32.8999 29.7 34.8999 29.7C36.9999 29.7 37.8999 28.4 38.9999 26.3C38.9999 26.3 44.5999 14.1 44.6999 14C44.7999 13.9 44.8999 13.5 45.4999 13.5C45.9999 13.5 46.2999 13.9 46.2999 14.4V26.2C46.2999 28 47.2999 29.6 49.1999 29.6C51.1999 29.6 52.1999 28.1 52.1999 26.2V16.6C52.1999 14.7 53.5999 13.5 55.2999 13.5C57.0999 13.5 58.2999 14.8 58.2999 16.6V26.3C58.2999 28.1 59.3 29.7 61.2 29.7C63.2 29.7 64.2 28.2 64.2 26.3V16.6C64.2 14.7 65.5999 13.5 67.2999 13.5C69.0999 13.5 70.2999 14.8 70.2999 16.6V26.3C70.2999 28.1 71.3 29.7 73.2 29.7C75.2 29.7 76.2 28.2 76.2 26.3V15.3C76.2 11.2 73 8.40004 69 8.40004C65 8.40004 62.5999 11.1 62.5999 11.1C61.1999 9.40004 59.5 8.40004 56.4 8.40004C53.2 8.40004 50.2999 11.1 50.2999 11.1C48.9999 9.40004 46.6999 8.40004 44.9999 8.40004C42.1999 8.40004 39.8999 9.70004 38.4999 12.8L34.3999 22.4L29.4999 10.1Z" fill="#717074"/>
<path d="M158.9 11.3C158.9 9.90005 160.1 8.80005 161.4 8.80005C162.8 8.80005 163.9 10 163.9 11.3C163.9 12.7 162.7 13.8 161.4 13.8C160 13.8 158.9 12.7 158.9 11.3ZM163.4 11.3C163.4 10.1 162.6 9.30005 161.4 9.30005C160.2 9.30005 159.4 10.2 159.4 11.3C159.4 12.5 160.2 13.3 161.4 13.3C162.6 13.3 163.4 12.4 163.4 11.3Z" fill="#717074"/>
<path d="M162.4 11.4C162.3 11.5 162.1 11.6 161.9 11.7L162.5 12.6H162L161.4 11.7H161V12.6H160.5V10H161.6C161.8 10 161.9 10 162.1 10.1C162.2 10.2 162.4 10.3 162.4 10.4C162.5 10.5 162.5 10.7 162.5 10.8C162.6 11.1 162.5 11.3 162.4 11.4ZM161 11.3H161.6C161.8 11.3 161.9 11.3 162 11.2C162.1 11.1 162.1 11 162.1 10.9C162.1 10.8 162 10.7 162 10.6C161.9 10.5 161.8 10.5 161.6 10.5H161V11.3Z" fill="#717074"/>
</svg>
