<?xml version="1.0" encoding="utf-8"?>
<!-- Generator: Adobe Illustrator 19.1.0, SVG Export Plug-In . SVG Version: 6.00 Build 0)  -->
<svg version="1.1" id="Layer_2" xmlns="http://www.w3.org/2000/svg" xmlns:xlink="http://www.w3.org/1999/xlink" x="0px" y="0px"
	 viewBox="0 0 142.8 35.2" enable-background="new 0 0 142.8 35.2" xml:space="preserve">
<path fill="#1C1F2A" d="M47.3,15.9c0.3-2,2.1-4.5,5.5-4.5c3.2,0,5,2.3,5.3,4.5H47.3z M42.9,17.5c0,5.6,4.1,9.4,10,9.4
	c3.9,0,6.5-1.9,8-3.6c0.2-0.2,0.2-0.4,0-0.6l-2.1-1.9c-0.2-0.2-0.5-0.2-0.6,0c-1.1,0.9-2.7,2.4-5.2,2.4c-2.9,0-5-1.8-5.5-4.1h14.5
	c0.4,0,0.6-0.2,0.6-0.6v-0.9c0-5.4-3.5-9.8-9.4-9.8C46.7,7.8,42.9,12.1,42.9,17.5L42.9,17.5z M65.1,26.2c0,0.3,0.2,0.5,0.5,0.5h3.1
	c0.3,0,0.5-0.2,0.5-0.5V0.4C69.1,0.2,69,0,68.7,0h-3.2c-0.3,0-0.4,0.2-0.4,0.4V26.2z M36.5,26.2c0,0.3,0.2,0.5,0.5,0.5H40
	c0.3,0,0.5-0.2,0.5-0.5V15.8c0-4.4-2.6-8-8.1-8h-0.1c-2.7,0-4.7,0.9-5.9,1.9v-1c0-0.3-0.2-0.5-0.5-0.5h-3.1c-0.3,0-0.5,0.2-0.5,0.5
	v17.4c0,0.3,0.2,0.5,0.5,0.5h3.1c0.3,0,0.5-0.2,0.5-0.5v-9.6c0-3,1.5-5.2,5.1-5.2c3.6,0,5,2.2,5,5.2V26.2z M95,31.6
	c1.4,1.7,4.4,3.7,8.6,3.7c5.9,0,9.4-3.6,9.4-9.3V8.8c0-0.3-0.2-0.5-0.5-0.5h-2.9c-0.3,0-0.5,0.2-0.5,0.5v1c-1.3-1.1-3-1.9-5.8-1.9
	c-5.3,0-9.9,3.9-9.9,9.6c0,5.8,4.5,9.6,9.9,9.6c2.6,0,4.3-0.9,5.6-1.9v1.2c0,3.2-1.9,5.4-5.4,5.4c-2.9,0-4.8-1.6-6.1-2.8
	c-0.2-0.2-0.6-0.2-0.8,0L95,30.8C94.7,31,94.7,31.3,95,31.6L95,31.6z M15.6,17.4c0,3.2-2.4,5.8-5.7,5.8s-5.5-2.8-5.5-5.8v-0.2
	c0-3.1,2.3-5.7,5.5-5.7S15.6,14.1,15.6,17.4L15.6,17.4z M0,17.4C0,22.6,4.2,27,9.9,27s9.9-4.4,9.9-9.6v-0.2c0-5.2-4.2-9.4-9.9-9.4
	S0,12,0,17.4L0,17.4z M87.1,17.4c0,3.2-2.4,5.8-5.7,5.8c-3.2,0-5.5-2.8-5.5-5.8v-0.2c0-3.1,2.3-5.7,5.5-5.7
	C84.7,11.5,87.1,14.1,87.1,17.4L87.1,17.4z M71.5,17.4c0,5.2,4.2,9.6,9.9,9.6s9.9-4.4,9.9-9.6v-0.2c0-5.2-4.2-9.4-9.9-9.4
	S71.5,12,71.5,17.4L71.5,17.4z M116.8,26.2c0,0.3,0.2,0.5,0.5,0.5h3.1c0.3,0,0.5-0.2,0.5-0.5V8.7c0-0.2-0.1-0.4-0.4-0.4h-3.2
	c-0.3,0-0.4,0.2-0.4,0.4V26.2z M116.8,3.7c0,0.3,0.2,0.5,0.5,0.5h3.1c0.3,0,0.5-0.2,0.5-0.5V0.4c0-0.2-0.1-0.4-0.4-0.4h-3.2
	c-0.3,0-0.4,0.2-0.4,0.4V3.7z M138.7,26.2c0,0.3,0.2,0.5,0.5,0.5h3.1c0.3,0,0.5-0.2,0.5-0.5V15.8c0-4.4-2.6-8-8.1-8h-0.1
	c-2.7,0-4.7,0.9-5.9,1.9v-1c0-0.3-0.2-0.5-0.5-0.5h-3.1c-0.3,0-0.5,0.2-0.5,0.5v17.4c0,0.3,0.2,0.5,0.5,0.5h3.1
	c0.3,0,0.5-0.2,0.5-0.5v-9.6c0-3,1.5-5.2,5.1-5.2c3.6,0,5,2.2,5,5.2V26.2z M109,17.4c0,3.2-2.4,5.8-5.7,5.8s-5.5-2.8-5.5-5.8v-0.2
	c0-3.1,2.3-5.7,5.5-5.7S109,14.1,109,17.4z"/>
</svg>
